<?xml version="1.0" encoding="utf-8"?>
<!-- Generator: Adobe Illustrator 27.3.1, SVG Export Plug-In . SVG Version: 6.00 Build 0)  -->
<svg version="1.1" id="Layer_1" xmlns="http://www.w3.org/2000/svg" xmlns:xlink="http://www.w3.org/1999/xlink" x="0px" y="0px"
	 viewBox="0 0 595.3 841.9" style="enable-background:new 0 0 595.3 841.9;" xml:space="preserve">
<style type="text/css">
	.st0{fill:#FFB638;}
	.st1{fill:#F49916;}
</style>
<path class="st0" d="M245.5,276.6c-59.7,24.5-80.6,81.4-85.9,95.8c-27.3,74.4,6.4,141.2,14.9,158c8.8,17.4,56.6,112.1,135.6,110.8
	c74.4-1.3,122.3-86.9,136.9-140.6c4.2-15.4,16.5-68.3-7.5-126.9c-7.7-18.9-33.6-82.1-99.6-102C294.5,257.8,255.5,272.5,245.5,276.6z
	"/>
<polyline class="st1" points="167.2,268.5 189.4,244.2 381.1,189.8 389.6,216 197.5,272 "/>
<path class="st0" d="M334.1,204.1c3.1,4.3,21.4,30.1,13.1,58.1c-10.4,35-54.6,46.8-84.2,43.6c-18.9-2.1-49.2-12.2-52.3-30.5
	C207,253.5,330.5,214.2,334.1,204.1c3.2-9.1-13.2-25.6-30.5-31.9c-25-9.2-55.4-1.4-72.6,20.3c-15.6,19.6-18,47.3-6.3,70.7"/>
</svg>
